<svg xmlns="http://www.w3.org/2000/svg" viewBox="0 0 121.76 22.89"><defs><style>.cls-1{fill:#fff;}</style></defs><title>Fichier 6</title><g id="Calque_2" data-name="Calque 2"><g id="Calque_1-2" data-name="Calque 1"><path class="cls-1" d="M31.13.14V9.75H28.66V6H20.83V9.75H18.36V.14h2.47V3.9h7.83V.14Z"/><path class="cls-1" d="M41.23,7.7H35.47l-1,2.05H31.72l5-9.61H40l5,9.61H42.26Zm-.92-1.84-2-3.9-2,3.9Z"/><path class="cls-1" d="M47.18,6.44c0,1,.82,1.48,4,1.48,2.6,0,3.38-.29,3.38-1S54,6,50.84,5.79C46.66,5.6,45,4.94,45,2.79S47.15,0,50.75,0s5.82.91,5.82,3.28H54.1C54.1,2.22,53,2,50.47,2s-3,.24-3,1,.57.88,3.37,1c3.79.2,6.14.41,6.14,2.84s-2.43,3.09-6,3.09c-4,0-6.29-.68-6.29-3.45Z"/><path class="cls-1" d="M65.13,4.41,71,9.75H67.53l-4.23-4L60.35,7.91V9.75H57.88V.14h2.47v5l6.85-5H71Z"/><path class="cls-1" d="M84.32,9.89c-4.23,0-6-1.61-6-5V.14h2.47V4.93c0,1.35.37,2.88,3.57,2.88s3.57-1.55,3.57-2.88V.14h2.47V4.93C90.36,8.27,88.54,9.89,84.32,9.89Z"/><path class="cls-1" d="M93.73,6.44c0,1,.82,1.48,4,1.48,2.59,0,3.37-.29,3.37-1S100.51,6,97.4,5.79c-4.19-.19-5.85-.85-5.85-3S93.7,0,97.3,0s5.82.91,5.82,3.28h-2.47C100.65,2.22,99.59,2,97,2s-3,.24-3,1,.58.88,3.38,1c3.79.2,6.14.41,6.14,2.84s-2.43,3.09-6,3.09c-3.94,0-6.29-.68-6.29-3.45Z"/><path class="cls-1" d="M2.47,15.1v2h7.69v1.79H2.47v1.95h7.69v2H0V13.14H10.16v2Z"/><path class="cls-1" d="M24,13.14l-4.94,9.61H15.7l-4.94-9.61h2.77l3.86,7.78,3.86-7.78Z"/><path class="cls-1" d="M27.09,15.1v2h7.69v1.79H27.09v1.95h7.69v2H24.62V13.14H34.78v2Z"/><path class="cls-1" d="M44.82,19.89l1.77,2.86H43.68l-1.55-2.57h-4v2.57H35.67V13.14h7.56a3.41,3.41,0,0,1,3.68,3.53A3.27,3.27,0,0,1,44.82,19.89Zm-6.67-1.78h4.39c.74,0,1.9,0,1.9-1.44s-1.16-1.46-1.9-1.46H38.15Z"/><path class="cls-1" d="M46.43,13.14h3l3.69,4.38,3.7-4.38h3l-5.44,6.45v3.16H51.87V19.59Z"/><path class="cls-1" d="M72.1,15.21H67.43v7.54H65V15.21H60.29V13.14H72.1Z"/><path class="cls-1" d="M85.69,13.14v9.61H83.21V19H75.39v3.76H72.91V13.14h2.48V16.9h7.82V13.14Z"/><path class="cls-1" d="M89.26,22.75H86.79V13.14h2.47Z"/><path class="cls-1" d="M102.75,13.14v9.61H99.38l-6.55-7.21v7.21H90.36V13.14h3.35l6.56,7.22V13.14Z"/><path class="cls-1" d="M109.52,17.6h6.1v5.15h-1.83l-.11-1.51a5.72,5.72,0,0,1-4.39,1.65c-3.55,0-5.72-1.76-5.72-4.95S105.74,13,109.7,13s5.77,1.5,5.92,3.89H113.1c-.13-.73-.79-1.82-3.4-1.82-3.21,0-3.65,1.77-3.65,2.93s.45,3,3.65,3c2.39,0,3.35-1.05,3.4-1.77h-3.58Z"/><path class="cls-1" d="M121.76,16.79v1.84h-2.35V16.79Zm0,4.12v1.84h-2.35V20.91Z"/></g></g></svg>