<svg xmlns="http://www.w3.org/2000/svg" viewBox="0 0 121.4 9.88"><defs><style>.cls-1{fill:#fff;}</style></defs><title>Fichier 7</title><g id="Calque_2" data-name="Calque 2"><g id="Calque_1-2" data-name="Calque 1"><path class="cls-1" d="M4,.9c2.51,0,3.77,1,3.94,2.77H6.25C6.1,2.66,5.31,2.26,4,2.26c-1.65,0-2.34.58-2.34,1.87S2.32,6,4,6C5.3,6,6.1,5.62,6.25,4.59H7.9C7.73,6.42,6.47,7.38,4,7.38c-2.77,0-4-1.15-4-3.25S1.19.9,4,.9Z"/><path class="cls-1" d="M8.39,4.13C8.39,2,9.58.9,12.35.9s4,1.15,4,3.23-1.2,3.25-4,3.25S8.39,6.23,8.39,4.13Zm6.3,0c0-1.28-.65-1.87-2.34-1.87S10,2.84,10,4.13,10.67,6,12.35,6,14.69,5.42,14.69,4.13Z"/><path class="cls-1" d="M25,1v6.3h-2.2l-4.3-4.72V7.29H16.89V1h2.2l4.3,4.74V1Z"/><path class="cls-1" d="M33.28,2.35H30.22V7.29H28.6V2.35H25.54V1h7.74Z"/><path class="cls-1" d="M38.1,6H34.33l-.68,1.34H31.87L35.12,1h2.19l3.26,6.3h-1.8Zm-.6-1.21L36.22,2.19,34.93,4.74Z"/><path class="cls-1" d="M44.1.9c2.51,0,3.77,1,3.94,2.77H46.39c-.15-1-.94-1.41-2.29-1.41-1.65,0-2.34.58-2.34,1.87S42.46,6,44.1,6c1.34,0,2.14-.4,2.29-1.43H48c-.17,1.83-1.43,2.79-3.94,2.79-2.77,0-4-1.15-4-3.25S41.33.9,44.1.9Z"/><path class="cls-1" d="M55.87,2.35H52.8V7.29H51.18V2.35H48.12V1h7.75Z"/><path class="cls-1" d="M66.69,3.75v3.7H65.15V6.71a3.23,3.23,0,0,1-2.39.83c-1.62,0-3.08-.54-3.08-2.62s1.46-2.58,3.08-2.61a3.11,3.11,0,0,1,2.37.8c-.14-1.66-1.8-1.82-2.92-1.82-2.19,0-3.94.94-3.94,3.59,0,3.38,2.17,3.72,6.09,3.72l-.09,1.28c-5.54,0-7.54-1.17-7.54-5,0-3.17,2-4.88,5.39-4.88S66.69,1.18,66.69,3.75ZM65.14,5.07v-.3c-.07-.83-.72-1.17-2-1.17s-2,.38-2,1.32.66,1.33,2,1.33S65.07,5.91,65.14,5.07Z"/><path class="cls-1" d="M76,1v6.3H74.4V4.83H69.27V7.29H67.64V1h1.63V3.46H74.4V1Z"/><path class="cls-1" d="M82.63,6H78.86l-.68,1.34H76.4L79.65,1h2.19l3.26,6.3H83.31ZM82,4.74,80.75,2.19,79.46,4.74Z"/><path class="cls-1" d="M86.53,5.12c0,.67.54,1,2.59,1,1.7,0,2.21-.18,2.21-.68S91,4.8,88.93,4.7c-2.74-.13-3.83-.56-3.83-2S86.51.9,88.87.9s3.81.59,3.81,2.15H91.06c0-.69-.69-.86-2.37-.86s-2,.15-2,.62.37.57,2.21.68c2.49.14,4,.27,4,1.87s-1.6,2-3.93,2c-2.58,0-4.12-.44-4.12-2.26Z"/><path class="cls-1" d="M98.29,3.79l3.82,3.5H99.87L97.09,4.67,95.16,6.09v1.2H93.54V1h1.62V4.26L99.65,1h2.46Z"/><path class="cls-1" d="M104.18,6.09v1.2h-1.54V6.09Z"/><path class="cls-1" d="M108.81,7.38c-2.77,0-4-1-4-3.25V1h1.62V4.13c0,.88.24,1.89,2.34,1.89s2.34-1,2.34-1.89V1h1.62V4.13C112.77,6.32,111.58,7.38,108.81,7.38Z"/><path class="cls-1" d="M115,5.12c0,.67.54,1,2.59,1,1.7,0,2.21-.18,2.21-.68s-.36-.61-2.4-.71c-2.75-.13-3.84-.56-3.84-2S115,.9,117.32.9s3.81.59,3.81,2.15h-1.62c0-.69-.69-.86-2.37-.86s-2,.15-2,.62.38.57,2.22.68c2.48.14,4,.27,4,1.87s-1.59,2-3.92,2c-2.59,0-4.13-.44-4.13-2.26Z"/></g></g></svg>