<svg stroke="#fff" stroke-width="2" xmlns="http://www.w3.org/2000/svg" viewBox="0 0 120.62 99.37"><defs><style></style></defs><title>Fichier 3</title><g id="Calque_2" data-name="Calque 2"><g id="Calque_1-2" data-name="Calque 1"><path class="cls-1" d="M29.17,71.36c2.35,9.29,11,11.65,39.58,4.43C92.47,69.8,99,65.35,97.21,58.45,95.38,51.17,90,51.18,61.2,57,22.47,64.91,5.76,62.72.79,43-4.09,23.68,14.06,12.56,46.94,4.25c33.14-8.37,55.31-5.15,60.8,16.56l-22.6,5.71C82.7,16.85,72.44,16.91,49,22.84,26.75,28.45,22,31.91,23.66,38.44c1.72,6.78,7.3,6.7,33.29,1.74C92.07,33.31,114,29.78,119.62,52c5.92,23.47-15.09,33.85-47.6,42.06-36,9.1-59,8.37-65.44-17Z"/></g></g></svg>