<svg xmlns="http://www.w3.org/2000/svg" viewBox="0 0 122.61 101.38"><defs><style>.cls-1{fill:none;stroke:#fff;stroke-miterlimit:10;stroke-width:2px;}</style></defs><title>SOutline</title><g id="Calque_2" data-name="Calque 2"><g id="Calque_1-2" data-name="Calque 1"><g id="Calque_2-2" data-name="Calque 2"><g id="Calque_1-2-2" data-name="Calque 1-2"><path class="cls-1" d="M30.17,72.36c2.35,9.29,11,11.65,39.58,4.43,23.72-6,30.25-10.44,28.46-17.34C96.38,52.17,91,52.18,62.2,58,23.47,65.91,6.76,63.72,1.79,44-3.09,24.68,15.06,13.56,47.94,5.25,81.08-3.12,103.25.1,108.74,21.81l-22.6,5.71C83.7,17.85,73.44,17.91,50,23.84c-22.25,5.61-27,9.07-25.34,15.6,1.72,6.78,7.3,6.7,33.29,1.74C93.07,34.31,115,30.78,120.62,53c5.92,23.47-15.09,33.85-47.6,42.06-36,9.1-59,8.37-65.44-17Z"/></g></g></g></g></svg>